<svg xmlns="http://www.w3.org/2000/svg" width="20.254" height="20.254" viewBox="0 0 20.254 20.254"><defs><style>.a{fill:none;}.b{fill:#fff;}</style></defs><path class="a" d="M0,0H20.254V20.254H0Z"/><path class="b" d="M17.3,7.688H4.7A2.755,2.755,0,0,0,2,10.5v3.751a1.844,1.844,0,0,0,1.8,1.875H5.6V18a1.844,1.844,0,0,0,1.8,1.875h7.2A1.844,1.844,0,0,0,16.4,18V16.127h1.8A1.844,1.844,0,0,0,20,14.252V10.5A2.755,2.755,0,0,0,17.3,7.688ZM13.7,18H8.3a.922.922,0,0,1-.9-.938V13.314h7.2v3.751A.922.922,0,0,1,13.7,18Zm3.6-6.564a.938.938,0,1,1,.9-.938A.922.922,0,0,1,17.3,11.439ZM15.5,3h-9a.922.922,0,0,0-.9.938V5.813a.922.922,0,0,0,.9.938h9a.922.922,0,0,0,.9-.938V3.938A.922.922,0,0,0,15.5,3Z" transform="translate(-0.875 -1.312)"/></svg>